M48
; DRILL file {KiCad 8.0.1-8.0.1-1~ubuntu22.04.1} date 2024-05-06T19:27:53+0600
; FORMAT={-:-/ absolute / metric / decimal}
; #@! TF.CreationDate,2024-05-06T19:27:53+06:00
; #@! TF.GenerationSoftware,Kicad,Pcbnew,8.0.1-8.0.1-1~ubuntu22.04.1
; #@! TF.FileFunction,Plated,1,2,PTH
FMAT,2
METRIC
; #@! TA.AperFunction,Plated,PTH,ComponentDrill
T1C0.200
; #@! TA.AperFunction,Plated,PTH,ViaDrill
T2C0.300
; #@! TA.AperFunction,Plated,PTH,ComponentDrill
T3C0.600
; #@! TA.AperFunction,Plated,PTH,ComponentDrill
T4C0.650
; #@! TA.AperFunction,Plated,PTH,ComponentDrill
T5C0.700
; #@! TA.AperFunction,Plated,PTH,ComponentDrill
T6C0.750
; #@! TA.AperFunction,Plated,PTH,ComponentDrill
T7C1.000
%
G90
G05
T1
X-39.44Y-213.975
X-39.44Y-215.375
X-38.74Y-213.275
X-38.74Y-214.675
X-38.74Y-216.075
X-38.04Y-213.975
X-38.04Y-215.375
X-37.34Y-213.275
X-37.34Y-214.675
X-37.34Y-216.075
X-36.64Y-213.975
X-36.64Y-215.375
T2
X-54.5Y-240.5
X-53.594Y-268.605
X-53.34Y-269.621
X-53.0Y-267.0
X-52.959Y-270.51
X-51.943Y-269.24
X-50.0Y-268.5
X-47.5Y-269.0
X-46.5Y-227.0
X-44.577Y-199.39
X-43.18Y-226.695
X-43.164Y-254.187
X-43.0Y-248.0
X-43.0Y-251.0
X-42.5Y-266.0
X-42.0Y-211.0
X-42.0Y-219.0
X-39.497Y-197.866
X-37.5Y-43.5
X-37.0Y-262.5
X-32.5Y-233.5
X-30.0Y-251.0
X-26.0Y-107.0
X-25.0Y-111.0
X-22.0Y-234.0
X-18.6Y-279.6
X-18.0Y-24.0
X-18.0Y-104.0
X-17.0Y-219.0
X-17.0Y-274.8
X-16.0Y-118.5
X-15.4Y-249.2
X-15.0Y-110.2
X-14.8Y-122.0
X-14.2Y-248.4
X-13.8Y-254.6
X-13.6Y-112.8
X-13.0Y-252.2
X-12.8Y-279.8
X-12.2Y-113.2
X-8.8Y-274.8
X-8.636Y-13.335
X-8.509Y-52.832
X-8.5Y-116.0
X-6.0Y-18.0
X-6.0Y-33.0
X-6.0Y-48.0
X-6.0Y-63.0
X-6.0Y-78.0
X-6.0Y-93.0
X-6.0Y-108.0
X-6.0Y-124.0
X-6.0Y-138.0
X-6.0Y-153.0
X-6.0Y-168.0
X-6.0Y-183.0
X-6.0Y-198.0
X-6.0Y-213.0
X-6.0Y-228.0
X-6.0Y-243.0
X-6.0Y-258.0
X-6.0Y-273.0
X-4.0Y-118.8
X-3.6Y-246.761
X0.0Y0.0
X0.0Y-18.0
X0.0Y-33.0
X0.0Y-48.0
X0.0Y-63.0
X0.0Y-78.0
X0.0Y-93.0
X0.0Y-108.0
X0.0Y-123.0
X0.0Y-138.0
X0.0Y-153.0
X0.0Y-168.0
X0.0Y-183.0
X0.0Y-198.0
X0.0Y-213.0
X0.0Y-228.0
X0.0Y-243.0
X0.0Y-258.0
X0.0Y-273.0
X3.0Y-284.0
X3.0Y-286.0
X3.0Y-288.0
X6.5Y-6.0
X6.5Y-21.0
X6.5Y-36.0
X6.5Y-51.0
X6.5Y-66.0
X6.5Y-81.0
X6.5Y-96.0
X6.5Y-111.0
X6.5Y-126.0
X6.5Y-141.0
X6.5Y-156.0
X6.5Y-171.0
X6.5Y-186.0
X6.5Y-201.0
X6.5Y-216.0
X6.5Y-231.0
X6.5Y-246.0
X6.5Y-261.0
X6.5Y-276.0
X11.2Y-281.6
X11.2Y-285.2
X11.2Y-290.6
X11.23Y-286.63
X13.72Y-6.02
X13.72Y-21.02
X13.72Y-36.02
X13.72Y-51.02
X13.72Y-66.02
X13.72Y-81.02
X13.72Y-96.02
X13.72Y-111.02
X13.72Y-126.02
X13.72Y-141.02
X13.72Y-156.02
X13.72Y-171.02
X13.72Y-186.02
X13.72Y-201.02
X13.72Y-216.02
X13.72Y-231.02
X13.72Y-246.02
X13.72Y-261.02
X13.72Y-276.02
X14.986Y0.0
X21.5Y-6.0
X21.5Y-21.0
X21.5Y-36.0
X21.5Y-51.0
X21.5Y-66.0
X21.5Y-81.0
X21.5Y-96.0
X21.5Y-111.0
X21.5Y-126.0
X21.5Y-141.0
X21.5Y-156.0
X21.5Y-171.0
X21.5Y-186.0
X21.5Y-201.0
X21.5Y-216.0
X21.5Y-231.0
X21.5Y-246.0
X21.5Y-261.0
X21.5Y-276.0
X22.6Y-290.4
X28.72Y-6.02
X28.72Y-21.02
X28.72Y-36.02
X28.72Y-51.02
X28.72Y-66.02
X28.72Y-81.02
X28.72Y-96.02
X28.72Y-111.02
X28.72Y-126.02
X28.72Y-141.02
X28.72Y-156.02
X28.72Y-171.02
X28.72Y-186.02
X28.72Y-201.02
X28.72Y-216.02
X28.72Y-231.02
X28.72Y-246.02
X28.72Y-261.02
X28.72Y-276.02
X36.5Y-6.0
X36.5Y-21.0
X36.5Y-36.0
X36.5Y-51.0
X36.5Y-66.0
X36.5Y-81.0
X36.5Y-96.0
X36.5Y-111.0
X36.5Y-126.0
X36.5Y-141.0
X36.5Y-156.0
X36.5Y-171.0
X36.5Y-186.0
X36.5Y-201.0
X36.5Y-216.0
X36.5Y-231.0
X36.5Y-246.0
X36.5Y-261.0
X36.5Y-276.0
X43.72Y-6.02
X43.72Y-21.02
X43.72Y-36.02
X43.72Y-51.02
X43.72Y-66.02
X43.72Y-81.02
X43.72Y-96.02
X43.72Y-111.02
X43.72Y-126.02
X43.72Y-141.02
X43.72Y-156.02
X43.72Y-171.02
X43.72Y-186.02
X43.72Y-201.02
X43.72Y-216.02
X43.72Y-231.02
X43.72Y-246.02
X43.72Y-261.02
X43.72Y-276.02
X51.5Y-6.0
X51.5Y-21.0
X51.5Y-36.0
X51.5Y-51.0
X51.5Y-66.0
X51.5Y-81.0
X51.5Y-96.0
X51.5Y-111.0
X51.5Y-126.0
X51.5Y-141.0
X51.5Y-156.0
X51.5Y-171.0
X51.5Y-186.0
X51.5Y-201.0
X51.5Y-216.0
X51.5Y-231.0
X51.5Y-246.0
X51.5Y-261.0
X51.5Y-276.0
X58.72Y-6.02
X58.72Y-21.02
X58.72Y-36.02
X58.72Y-51.02
X58.72Y-66.02
X58.72Y-81.02
X58.72Y-96.02
X58.72Y-111.02
X58.72Y-126.02
X58.72Y-141.02
X58.72Y-156.02
X58.72Y-171.02
X58.72Y-186.02
X58.72Y-201.02
X58.72Y-216.02
X58.72Y-231.02
X58.72Y-246.02
X58.72Y-261.02
X58.72Y-276.02
X66.5Y-6.0
X66.5Y-21.0
X66.5Y-36.0
X66.5Y-51.0
X66.5Y-66.0
X66.5Y-81.0
X66.5Y-96.0
X66.5Y-111.0
X66.5Y-126.0
X66.5Y-141.0
X66.5Y-156.0
X66.5Y-171.0
X66.5Y-186.0
X66.5Y-201.0
X66.5Y-216.0
X66.5Y-231.0
X66.5Y-246.0
X66.5Y-261.0
X66.5Y-276.0
X73.72Y-6.02
X73.72Y-21.02
X73.72Y-36.02
X73.72Y-51.02
X73.72Y-66.02
X73.72Y-81.02
X73.72Y-96.02
X73.72Y-111.02
X73.72Y-126.02
X73.72Y-141.02
X73.72Y-156.02
X73.72Y-171.02
X73.72Y-186.02
X73.72Y-201.02
X73.72Y-216.02
X73.72Y-231.02
X73.72Y-246.02
X73.72Y-261.02
X73.72Y-276.02
X81.5Y-6.0
X81.5Y-21.0
X81.5Y-36.0
X81.5Y-51.0
X81.5Y-66.0
X81.5Y-81.0
X81.5Y-96.0
X81.5Y-111.0
X81.5Y-126.0
X81.5Y-141.0
X81.5Y-156.0
X81.5Y-171.0
X81.5Y-186.0
X81.5Y-201.0
X81.5Y-216.0
X81.5Y-231.0
X81.5Y-246.0
X81.5Y-261.0
X81.5Y-276.0
X88.72Y-6.02
X88.72Y-21.02
X88.72Y-36.02
X88.72Y-51.02
X88.72Y-66.02
X88.72Y-81.02
X88.72Y-96.02
X88.72Y-111.02
X88.72Y-126.02
X88.72Y-141.02
X88.72Y-156.02
X88.72Y-171.02
X88.72Y-186.02
X88.72Y-201.02
X88.72Y-216.02
X88.72Y-231.02
X88.72Y-246.02
X88.72Y-261.02
X88.72Y-276.02
X96.5Y-6.0
X96.5Y-21.0
X96.5Y-36.0
X96.5Y-51.0
X96.5Y-66.0
X96.5Y-81.0
X96.5Y-96.0
X96.5Y-111.0
X96.5Y-126.0
X96.5Y-141.0
X96.5Y-156.0
X96.5Y-171.0
X96.5Y-186.0
X96.5Y-201.0
X96.5Y-216.0
X96.5Y-231.0
X96.5Y-246.0
X96.5Y-261.0
X96.5Y-276.0
X103.72Y-6.02
X103.72Y-21.02
X103.72Y-36.02
X103.72Y-51.02
X103.72Y-66.02
X103.72Y-81.02
X103.72Y-96.02
X103.72Y-111.02
X103.72Y-126.02
X103.72Y-141.02
X103.72Y-156.02
X103.72Y-171.02
X103.72Y-186.02
X103.72Y-201.02
X103.72Y-216.02
X103.72Y-231.02
X103.72Y-246.02
X103.72Y-261.02
X103.72Y-276.02
X111.5Y-6.0
X111.5Y-21.0
X111.5Y-36.0
X111.5Y-51.0
X111.5Y-66.0
X111.5Y-81.0
X111.5Y-96.0
X111.5Y-111.0
X111.5Y-126.0
X111.5Y-141.0
X111.5Y-156.0
X111.5Y-171.0
X111.5Y-186.0
X111.5Y-201.0
X111.5Y-216.0
X111.5Y-231.0
X111.5Y-246.0
X111.5Y-261.0
X111.5Y-276.0
X118.72Y-6.02
X118.72Y-21.02
X118.72Y-36.02
X118.72Y-51.02
X118.72Y-66.02
X118.72Y-81.02
X118.72Y-96.02
X118.72Y-111.02
X118.72Y-126.02
X118.72Y-141.02
X118.72Y-156.02
X118.72Y-171.02
X118.72Y-186.02
X118.72Y-201.02
X118.72Y-216.02
X118.72Y-231.02
X118.72Y-246.02
X118.72Y-261.02
X118.72Y-276.02
X126.5Y-6.0
X126.5Y-21.0
X126.5Y-36.0
X126.5Y-51.0
X126.5Y-66.0
X126.5Y-81.0
X126.5Y-96.0
X126.5Y-111.0
X126.5Y-126.0
X126.5Y-141.0
X126.5Y-156.0
X126.5Y-171.0
X126.5Y-186.0
X126.5Y-201.0
X126.5Y-216.0
X126.5Y-231.0
X126.5Y-246.0
X126.5Y-261.0
X126.5Y-276.0
X127.2Y-286.63
X127.2Y-290.0
X130.2Y-285.4
X130.6Y-281.2
X133.72Y-6.02
X133.72Y-21.02
X133.72Y-36.02
X133.72Y-51.02
X133.72Y-66.02
X133.72Y-81.02
X133.72Y-96.02
X133.72Y-111.02
X133.72Y-126.02
X133.72Y-141.02
X133.72Y-156.02
X133.72Y-171.02
X133.72Y-186.02
X133.72Y-201.02
X133.72Y-216.02
X133.72Y-231.02
X133.72Y-246.02
X133.72Y-261.02
X133.72Y-276.02
X141.0Y-290.4
X141.5Y-6.0
X141.5Y-21.0
X141.5Y-36.0
X141.5Y-51.0
X141.5Y-66.0
X141.5Y-81.0
X141.5Y-96.0
X141.5Y-111.0
X141.5Y-126.0
X141.5Y-141.0
X141.5Y-156.0
X141.5Y-171.0
X141.5Y-186.0
X141.5Y-201.0
X141.5Y-216.0
X141.5Y-231.0
X141.5Y-246.0
X141.5Y-261.0
X141.5Y-276.0
X148.72Y-6.02
X148.72Y-21.02
X148.72Y-36.02
X148.72Y-51.02
X148.72Y-66.02
X148.72Y-81.02
X148.72Y-96.02
X148.72Y-111.02
X148.72Y-126.02
X148.72Y-141.02
X148.72Y-156.02
X148.72Y-171.02
X148.72Y-186.02
X148.72Y-201.02
X148.72Y-216.02
X148.72Y-231.02
X148.72Y-246.02
X148.72Y-261.02
X148.72Y-276.02
X156.5Y-6.0
X156.5Y-21.0
X156.5Y-36.0
X156.5Y-51.0
X156.5Y-66.0
X156.5Y-81.0
X156.5Y-96.0
X156.5Y-111.0
X156.5Y-126.0
X156.5Y-141.0
X156.5Y-156.0
X156.5Y-171.0
X156.5Y-186.0
X156.5Y-201.0
X156.5Y-216.0
X156.5Y-231.0
X156.5Y-246.0
X156.5Y-261.0
X156.5Y-276.0
X163.72Y-6.02
X163.72Y-21.02
X163.72Y-36.02
X163.72Y-51.02
X163.72Y-66.02
X163.72Y-81.02
X163.72Y-96.02
X163.72Y-111.02
X163.72Y-126.02
X163.72Y-141.02
X163.72Y-156.02
X163.72Y-171.02
X163.72Y-186.02
X163.72Y-201.02
X163.72Y-216.02
X163.72Y-231.02
X163.72Y-246.02
X163.72Y-261.02
X163.72Y-276.02
X171.5Y-6.0
X171.5Y-21.0
X171.5Y-36.0
X171.5Y-51.0
X171.5Y-66.0
X171.5Y-81.0
X171.5Y-96.0
X171.5Y-111.0
X171.5Y-126.0
X171.5Y-141.0
X171.5Y-156.0
X171.5Y-171.0
X171.5Y-186.0
X171.5Y-201.0
X171.5Y-216.0
X171.5Y-231.0
X171.5Y-246.0
X171.5Y-261.0
X171.5Y-276.0
X178.72Y-6.02
X178.72Y-21.02
X178.72Y-36.02
X178.72Y-51.02
X178.72Y-66.02
X178.72Y-81.02
X178.72Y-96.02
X178.72Y-111.02
X178.72Y-126.02
X178.72Y-141.02
X178.72Y-156.02
X178.72Y-171.02
X178.72Y-186.02
X178.72Y-201.02
X178.72Y-216.02
X178.72Y-231.02
X178.72Y-246.02
X178.72Y-261.02
X178.72Y-276.02
X186.5Y-6.0
X186.5Y-21.0
X186.5Y-36.0
X186.5Y-51.0
X186.5Y-66.0
X186.5Y-81.0
X186.5Y-96.0
X186.5Y-111.0
X186.5Y-126.0
X186.5Y-141.0
X186.5Y-156.0
X186.5Y-171.0
X186.5Y-186.0
X186.5Y-201.0
X186.5Y-216.0
X186.5Y-231.0
X186.5Y-246.0
X186.5Y-261.0
X186.5Y-276.0
X193.72Y-6.02
X193.72Y-21.02
X193.72Y-36.02
X193.72Y-51.02
X193.72Y-66.02
X193.72Y-81.02
X193.72Y-96.02
X193.72Y-111.02
X193.72Y-126.02
X193.72Y-141.02
X193.72Y-156.02
X193.72Y-171.02
X193.72Y-186.02
X193.72Y-201.02
X193.72Y-216.02
X193.72Y-231.02
X193.72Y-246.02
X193.72Y-261.02
X193.72Y-276.02
X201.5Y-6.0
X201.5Y-21.0
X201.5Y-36.0
X201.5Y-51.0
X201.5Y-66.0
X201.5Y-81.0
X201.5Y-96.0
X201.5Y-111.0
X201.5Y-126.0
X201.5Y-141.0
X201.5Y-156.0
X201.5Y-171.0
X201.5Y-186.0
X201.5Y-201.0
X201.5Y-216.0
X201.5Y-231.0
X201.5Y-246.0
X201.5Y-261.0
X201.5Y-276.0
X208.72Y-6.02
X208.72Y-21.02
X208.72Y-36.02
X208.72Y-51.02
X208.72Y-66.02
X208.72Y-81.02
X208.72Y-96.02
X208.72Y-111.02
X208.72Y-126.02
X208.72Y-141.02
X208.72Y-156.02
X208.72Y-171.02
X208.72Y-186.02
X208.72Y-201.02
X208.72Y-216.02
X208.72Y-231.02
X208.72Y-246.02
X208.72Y-261.02
X208.72Y-276.02
X216.5Y-6.0
X216.5Y-21.0
X216.5Y-36.0
X216.5Y-51.0
X216.5Y-66.0
X216.5Y-81.0
X216.5Y-96.0
X216.5Y-111.0
X216.5Y-126.0
X216.5Y-141.0
X216.5Y-156.0
X216.5Y-171.0
X216.5Y-186.0
X216.5Y-201.0
X216.5Y-216.0
X216.5Y-231.0
X216.5Y-246.0
X216.5Y-261.0
X216.5Y-276.0
X223.72Y-6.02
X223.72Y-21.02
X223.72Y-36.02
X223.72Y-51.02
X223.72Y-66.02
X223.72Y-81.02
X223.72Y-96.02
X223.72Y-111.02
X223.72Y-126.02
X223.72Y-141.02
X223.72Y-156.02
X223.72Y-171.02
X223.72Y-186.02
X223.72Y-201.02
X223.72Y-216.02
X223.72Y-231.02
X223.72Y-246.02
X223.72Y-261.02
X223.72Y-276.02
X231.5Y-6.0
X231.5Y-21.0
X231.5Y-36.0
X231.5Y-51.0
X231.5Y-66.0
X231.5Y-81.0
X231.5Y-96.0
X231.5Y-111.0
X231.5Y-126.0
X231.5Y-141.0
X231.5Y-156.0
X231.5Y-171.0
X231.5Y-186.0
X231.5Y-201.0
X231.5Y-216.0
X231.5Y-231.0
X231.5Y-246.0
X231.5Y-261.0
X231.5Y-276.0
X238.72Y-6.02
X238.72Y-21.02
X238.72Y-36.02
X238.72Y-51.02
X238.72Y-66.02
X238.72Y-81.02
X238.72Y-96.02
X238.72Y-111.02
X238.72Y-126.02
X238.72Y-141.02
X238.72Y-156.02
X238.72Y-171.02
X238.72Y-186.02
X238.72Y-201.02
X238.72Y-216.02
X238.72Y-231.02
X238.72Y-246.02
X238.72Y-261.02
X238.72Y-276.02
X246.5Y-6.0
X246.5Y-21.0
X246.5Y-36.0
X246.5Y-51.0
X246.5Y-66.0
X246.5Y-81.0
X246.5Y-96.0
X246.5Y-111.0
X246.5Y-126.0
X246.5Y-141.0
X246.5Y-156.0
X246.5Y-171.0
X246.5Y-186.0
X246.5Y-201.0
X246.5Y-216.0
X246.5Y-231.0
X246.5Y-246.0
X246.5Y-261.0
X246.5Y-276.0
X250.2Y-285.4
X250.6Y-281.0
X253.72Y-6.02
X253.72Y-21.02
X253.72Y-36.02
X253.72Y-51.02
X253.72Y-66.02
X253.72Y-81.02
X253.72Y-96.02
X253.72Y-111.02
X253.72Y-126.02
X253.72Y-141.02
X253.72Y-156.02
X253.72Y-171.02
X253.72Y-186.02
X253.72Y-201.02
X253.72Y-216.02
X253.72Y-231.02
X253.72Y-246.02
X253.72Y-261.02
X253.72Y-276.02
X261.2Y-290.4
X261.5Y-6.0
X261.5Y-21.0
X261.5Y-36.0
X261.5Y-51.0
X261.5Y-66.0
X261.5Y-81.0
X261.5Y-96.0
X261.5Y-111.0
X261.5Y-126.0
X261.5Y-141.0
X261.5Y-156.0
X261.5Y-171.0
X261.5Y-186.0
X261.5Y-201.0
X261.5Y-216.0
X261.5Y-231.0
X261.5Y-246.0
X261.5Y-261.0
X261.5Y-276.0
X268.72Y-6.02
X268.72Y-21.02
X268.72Y-36.02
X268.72Y-51.02
X268.72Y-66.02
X268.72Y-81.02
X268.72Y-96.02
X268.72Y-111.02
X268.72Y-126.02
X268.72Y-141.02
X268.72Y-156.02
X268.72Y-171.02
X268.72Y-186.02
X268.72Y-201.02
X268.72Y-216.02
X268.72Y-231.02
X268.72Y-246.02
X268.72Y-261.02
X268.72Y-276.02
X276.5Y-6.0
X276.5Y-21.0
X276.5Y-36.0
X276.5Y-51.0
X276.5Y-66.0
X276.5Y-81.0
X276.5Y-96.0
X276.5Y-111.0
X276.5Y-126.0
X276.5Y-141.0
X276.5Y-156.0
X276.5Y-171.0
X276.5Y-186.0
X276.5Y-201.0
X276.5Y-216.0
X276.5Y-231.0
X276.5Y-246.0
X276.5Y-261.0
X276.5Y-276.0
X283.72Y-6.02
X283.72Y-21.02
X283.72Y-36.02
X283.72Y-51.02
X283.72Y-66.02
X283.72Y-81.02
X283.72Y-96.02
X283.72Y-111.02
X283.72Y-126.02
X283.72Y-141.02
X283.72Y-156.02
X283.72Y-171.02
X283.72Y-186.02
X283.72Y-201.02
X283.72Y-216.02
X283.72Y-231.02
X283.72Y-246.02
X283.72Y-261.02
X283.72Y-276.02
T4
X-56.71Y-266.61
X-56.71Y-266.61
X-56.71Y-272.39
X-56.71Y-272.39
T5
X-27.997Y-239.399
X283.337Y-282.829
T6
X-48.55Y-255.0
X-48.55Y-257.0
X-45.5Y-273.5
X-45.5Y-275.5
T7
X-51.425Y-181.102
X-45.62Y-112.07
X-43.825Y-181.102
X-43.08Y-112.07
X-40.54Y-112.07
X-38.0Y-112.07
X-35.46Y-112.07
X-32.92Y-112.07
X-30.396Y-112.078
T3
X-59.96Y-265.18G85X-60.76Y-265.18
G05
X-60.76Y-265.18G85X-59.96Y-265.18
G05
X-59.96Y-273.82G85X-60.76Y-273.82
G05
X-60.76Y-273.82G85X-59.96Y-273.82
G05
X-55.66Y-265.18G85X-56.76Y-265.18
G05
X-56.76Y-265.18G85X-55.66Y-265.18
G05
X-56.76Y-273.82G85X-55.66Y-273.82
G05
X-55.66Y-273.82G85X-56.76Y-273.82
G05
M30
