M48
; DRILL file {KiCad 8.0.1-8.0.1-1~ubuntu22.04.1} date 2024-05-06T19:27:53+0600
; FORMAT={-:-/ absolute / metric / decimal}
; #@! TF.CreationDate,2024-05-06T19:27:53+06:00
; #@! TF.GenerationSoftware,Kicad,Pcbnew,8.0.1-8.0.1-1~ubuntu22.04.1
; #@! TF.FileFunction,NonPlated,1,2,NPTH
FMAT,2
METRIC
; #@! TA.AperFunction,NonPlated,NPTH,ComponentDrill
T1C0.900
; #@! TA.AperFunction,NonPlated,NPTH,ComponentDrill
T2C2.200
%
G90
G05
T1
X-60.83Y-242.25
X-60.83Y-245.25
T2
X-57.912Y5.08
X-57.865Y-290.0
X-5.0Y-13.0
X-5.0Y-43.0
X-5.0Y-73.0
X-5.0Y-103.0
X-5.0Y-133.0
X-5.0Y-163.0
X-5.0Y-193.0
X-5.0Y-223.0
X-5.0Y-253.0
X120.476Y5.0
X120.523Y-290.0
X285.0Y-13.0
X285.0Y-43.0
X285.0Y-73.0
X285.0Y-103.0
X285.0Y-133.0
X285.0Y-163.0
X285.0Y-193.0
X285.0Y-223.0
X285.0Y-253.0
X290.021Y5.033
X290.068Y-290.068
M30
